<?xml version="1.0" encoding="utf-8"?>
<!-- Generator: Adobe Illustrator 27.1.1, SVG Export Plug-In . SVG Version: 6.00 Build 0)  -->
<svg version="1.1" id="Capa_1" xmlns="http://www.w3.org/2000/svg" xmlns:xlink="http://www.w3.org/1999/xlink" x="0px" y="0px"
	 viewBox="0 0 1500 1500" style="enable-background:new 0 0 1500 1500;" xml:space="preserve">
<style type="text/css">
	.st0{fill:#FE2F67;}
	.st1{opacity:0.15;enable-background:new    ;}
	.st2{fill:#AD0036;}
	.st3{opacity:0.3;fill:#661C0A;enable-background:new    ;}
	.st4{fill:#FFFFFF;}
	.st5{fill:#A50839;}
	.st6{fill:#87002A;}
	.st7{fill:#FF88B6;}
	.st8{opacity:0.5;}
	.st9{opacity:5.000000e-02;fill:#FFFFFF;enable-background:new    ;}
	.st10{opacity:5.000000e-02;enable-background:new    ;}
	.st11{opacity:0.31;}
	.st12{opacity:0.5;fill:#87002A;enable-background:new    ;}
</style>
<g>
	<g>
		<path class="st0" d="M423.4,594.4L423.4,594.4c19.2,6.4,28.8,25.6,20.2,40.1c-31.3,52.7-50.2,109.4-56.9,170.3
			c-1.8,16.8-21,26.3-40.2,19.9l0,0c-15.1-5-24.9-18.4-23.2-31.6c8.6-66.5,29.5-129,62.6-187.4C392.5,594.2,408.3,589.4,423.4,594.4
			z"/>
		<ellipse class="st1" cx="750" cy="1283.4" rx="549.4" ry="124.3"/>
		<g>
			<g>
				<path class="st0" d="M622.7,1266.5l-76.8,11c-2.2-15.3-4.1-30.6-5.8-46c-4.5-41.4-7.1-83.1-7.7-124.6
					c-0.6-38.5,0.4-77.3,3.1-115.8c1.5-21.3,3.4-42.6,5.9-63.8l77,9c-3.4,28.8-5.7,57.9-7.1,87c-1.3,27.5-1.8,55-1.3,82.4
					c0.8,51,4.7,102.5,11.6,153.1C621.9,1261.2,622.3,1263.8,622.7,1266.5z"/>
			</g>
			<g>
				<path class="st0" d="M983.4,1106.8c-0.7,41.6-3.3,83.4-7.8,124.8c-1.6,15.3-3.5,30.6-5.7,45.8l-76.8-11c0.2-1.6,0.5-3.3,0.7-4.9
					c7.1-51.6,11.2-104,12-156c0.4-24.5,0.1-49.2-1-73.8c-1.3-32-3.8-63.9-7.5-95.6l77-9c3,25.7,5.3,51.6,6.8,77.6
					C983.2,1038.8,983.9,1072.9,983.4,1106.8z"/>
			</g>
			<ellipse class="st0" cx="515.9" cy="1275.9" rx="114.2" ry="45.5"/>
			<ellipse class="st0" cx="1002.2" cy="1275.9" rx="114.2" ry="45.5"/>
			<path class="st2" d="M471,1271.7c-9.8,0.8-23.5,1.7-33.1,3.1c-9.6,1.1-23.2,3.8-32.7,5.6C425.6,1271,449,1268,471,1271.7
				L471,1271.7z"/>
			<path class="st2" d="M1049.7,1267.2c22.1-3.7,45.5-0.6,65.8,8.7c-9.7-1.8-23.1-4.4-32.7-5.6
				C1073.3,1268.9,1059.4,1268,1049.7,1267.2L1049.7,1267.2z"/>
		</g>
		<path class="st3" d="M541.4,927.2l77,9c-3.4,28.8-5.7,57.9-7.1,87c-29.3-9.8-54.7-21.2-75.8-32.2
			C536.9,969.6,538.9,948.3,541.4,927.2z"/>
		<path class="st3" d="M981.2,1004.8c-22.4,9.8-48,19.3-76.3,26.9c-1.3-32-3.8-63.9-7.5-95.6l77-9
			C977.4,952.9,979.7,978.8,981.2,1004.8z"/>
		<path class="st0" d="M1125.5,530v230.1c0,2.8-0.1,5.6-0.2,8.3v0.1c-0.4,13.2-2,26-4.5,38.6v0.1c-0.1,0.4-0.2,1-0.3,1.4v0.1
			c-3.4,15.9-8.4,31.3-14.9,45.9v0.1c-0.5,1.3-1.1,2.4-1.7,3.7v0.1c-0.4,0.7-0.7,1.4-1.1,2.1c-0.1,0.2-0.1,0.3-0.2,0.5
			c-0.2,0.4-0.4,0.8-0.6,1.2c-1.3,2.7-2.6,5.4-4.1,8.1c-0.2,0.3-0.4,0.7-0.5,1c-2.7,5.2-5.7,10.2-8.9,15.2c-0.5,0.8-1.1,1.7-1.7,2.4
			c-0.2,0.2-0.4,0.5-0.5,0.7c-0.5,0.8-1,1.6-1.6,2.4c-13.7,20.2-30.6,38.2-49.8,53.2c-16.8,13.2-35.5,24.1-55.6,32.3h-0.1
			c-23.8,9.8-49.6,15.7-76.4,17.1h-0.1c-1.2,0.1-2.3,0.1-3.4,0.1c-2.9,0.1-5.7,0.2-8.5,0.2H627.3c-4.8,0-9.4-0.2-14.3-0.5h-0.1
			c-26.9-1.6-52.6-7.9-76.3-17.9h-0.1c-14.8-6.3-28.9-14-41.9-23c-3-2.1-6-4.2-8.8-6.4c-0.1-0.1-0.1-0.1-0.2-0.2
			c-23.4-17.7-43.3-39.8-58.7-65c-0.7-1.1-1.4-2.4-2.1-3.5c-0.8-1.3-1.5-2.6-2.2-3.9c-0.4-0.5-0.7-1.1-1-1.7
			c-0.2-0.3-0.4-0.7-0.5-1.1c0,0,0,0-0.1-0.1c-1.6-2.8-3-5.6-4.4-8.4c-0.2-0.3-0.3-0.7-0.5-1C416,862,416,862,416,862
			c-0.1,0-0.1-0.1-0.1-0.1c-0.1-0.3-0.3-0.7-0.4-1c-0.1-0.2-0.2-0.4-0.3-0.6c-1.3-2.7-2.6-5.5-3.8-8.3c-0.1-0.2-0.1-0.3-0.2-0.5
			c-1-2.1-1.8-4.2-2.6-6.4c-1.4-3.2-2.6-6.5-3.6-9.9c-0.7-1.8-1.3-3.6-1.8-5.5c-0.6-1.8-1.1-3.6-1.6-5.4c-0.5-1.6-1-3.2-1.3-4.8
			c-1-3.5-1.8-7-2.6-10.6c-0.3-1.1-0.5-2.2-0.7-3.3c-0.5-2.9-1.1-5.8-1.6-8.7s-0.9-5.9-1.3-8.9c-0.3-2.3-0.5-4.6-0.7-6.9
			c-0.2-2.1-0.4-4.1-0.5-6.2c-0.1-1.6-0.2-3-0.2-4.6c-0.1-1.4-0.1-2.8-0.1-4.2c0,0-0.1,0,0-0.1c-0.1-2-0.1-4-0.1-6V530
			c0-2.8,0.1-5.6,0.1-8.4c0-1.7,0.1-3.5,0.2-5.2c0.1-2.4,0.1-4.7,0.3-7.1c0.2-3.4,0.4-6.8,0.7-10.2c0.2-2.2,0.4-4.4,0.6-6.6
			c0.1-1.2,0.2-2.4,0.4-3.5c0.4-3,0.8-6.2,1.2-9.2c0.2-1.9,0.5-3.9,0.8-5.8c0.5-2.9,1-5.9,1.5-8.9c1.5-8.4,3.3-16.7,5.4-24.9
			c0.7-2.4,1.3-4.7,1.9-7c2.8-10.2,6-20.1,9.7-30c1.4-3.8,2.9-7.5,4.4-11.2c1.4-3.4,2.9-6.8,4.4-10.2c0.1-0.3,0.2-0.6,0.4-0.8
			c1.5-3.2,3-6.5,4.5-9.6c1.7-3.5,3.5-6.9,5.2-10.3c1.5-2.7,2.9-5.5,4.4-8.2c0.4-0.7,0.8-1.4,1.2-2.1c1.9-3.3,3.8-6.6,5.7-9.7
			c1.7-2.8,3.4-5.6,5.2-8.4c0.4-0.5,0.7-1.1,1.1-1.6c2-3.1,4.1-6.2,6.2-9.3c0,0,0,0,0.1-0.1c1.4-2,2.8-3.9,4.2-6
			c1.4-1.9,2.8-3.8,4.2-5.7c0.1-0.1,0.1-0.1,0.1-0.2c0.1-0.1,0.1-0.1,0.1-0.1c2.8-3.6,5.6-7.2,8.5-10.7c2.7-3.4,5.6-6.7,8.4-10
			c0.2-0.1,0.3-0.3,0.4-0.5c1.5-1.7,3-3.4,4.5-5.1c0.4-0.4,0.8-0.8,1.1-1.2c1.7-1.9,3.5-3.6,5.1-5.5h0.1
			c5.7-5.9,11.6-11.6,17.7-17.3h0.1c2.2-2,4.4-3.9,6.6-5.9c2.2-1.9,4.4-3.8,6.6-5.6c2.3-1.9,4.5-3.7,6.7-5.5
			c2.3-1.8,4.6-3.6,6.9-5.3c1.8-1.4,3.6-2.7,5.4-4.1c7.6-5.5,15.4-10.8,23.4-15.6c9.3-5.7,18.9-11.1,28.8-15.9
			c2.4-1.3,4.9-2.4,7.4-3.6c1.7-0.8,3.5-1.6,5.3-2.4c1.9-0.8,3.8-1.7,5.8-2.5c4-1.7,8.1-3.4,12.1-5c1.9-0.8,3.8-1.5,5.7-2.2
			c5.8-2.2,11.6-4.1,17.5-6c1.9-0.6,3.8-1.1,5.7-1.7c11.5-3.4,23.2-6.2,35.1-8.5h0.1c2.6-0.5,5.1-1,7.7-1.4
			c5.4-0.9,10.8-1.7,16.2-2.3h0.1c0.9-0.2,1.7-0.3,2.7-0.4h0.1c13.4-1.5,26.9-2.3,40.7-2.3c24.7,0,48.9,2.4,72.2,7.2h0.1
			c41.9,8.5,81.4,24.1,116.8,45.7c20,12.1,38.6,26,55.8,41.6c4.7,4.2,9.4,8.6,13.9,13.1c1,1,1.9,2,2.9,2.9c1.7,1.7,3.5,3.5,5.1,5.3
			c0.4,0.4,0.8,0.8,1.1,1.2c1.6,1.6,3,3.2,4.5,4.9c6.4,7.1,12.5,14.5,18.4,22.1c2.4,3.2,4.8,6.3,7,9.6c17.3,24,31.7,50.2,42.8,78
			c0.8,1.9,1.5,3.8,2.2,5.8c7.8,20.6,13.9,42.1,17.8,64.2c1.4,7.9,2.6,15.8,3.5,23.9C1124.7,502.5,1125.5,516.1,1125.5,530z"/>
		<circle class="st4" cx="757.9" cy="516.9" r="130.2"/>
		<circle class="st5" cx="758.5" cy="516.9" r="64"/>
		<path class="st6" d="M897.3,401.8c-44.3-26.3-91.1-44.7-138.2-44.1l-8.7,0.1c-3.1,0.3-10,0.7-13,1c-3.1,0.4-7.7,1-10.8,1.4
			c-12.1,2.1-24.7,5-36.6,9.1c-23,7.4-46.9,19.7-69.2,32.5c6.5-10.9,13.9-20.5,21.6-29.2c24-27.1,52.1-44.6,80.9-52.7
			c3.4-0.8,8.4-1.9,11.9-2.7c3.2-0.6,11-1.4,14.3-1.8C803.1,312,858.8,340.1,897.3,401.8L897.3,401.8z"/>
		<path class="st4" d="M900.5,845.9c-95.8,42.8-205.8,42.8-301.5,0c-48.1-21.5-67.2-67.7-48.7-88.4c0.5-0.7,1.1-1.3,1.7-2
			c1.1-1.4,2.2-2.7,3.3-4.1c9-11.2,18-22.4,26.9-33.6c18.5-21,52.3-22,78.8-10.5c56.4,25.2,121.2,25.2,177.6,0
			c26.6-11.4,60.4-10.5,78.8,10.5c5.1,6.4,10.3,12.8,15.4,19.3c1.1,1.4,2.2,2.8,3.4,4.2c4.4,5.4,8.7,10.9,13.1,16.3
			C967.7,778.3,948.6,824.5,900.5,845.9z"/>
		<g>
			<path class="st7" d="M936.1,741.3c-3.3,17.5-7.3,34.9-11.8,52.4c-11.4-6-22.4-12.3-33.1-18.9c-9,15.4-18.8,30.6-29.4,45.7
				c-0.6-0.3-1.2-0.6-1.8-0.8c-6.3-2.8-12.5-5.9-18.4-9.2c-11-6.1-21.5-13-31.1-20.5c-17.1,14-35.3,27.4-54.5,40
				c-18.8-11.9-36.8-24.6-53.6-37.9c-23.6,6.7-48.1,12.1-73.2,16.2c-9.2-21-17.3-42.1-24.4-63.3c-16.7,5.8-34,11-51.7,15.4
				c-0.3-1.6-0.7-3.1-1-4.7c1.1-1.4,2.2-2.7,3.3-4.1c0.3,1.3,0.6,2.6,0.9,3.9c17.6-4.4,34.6-9.6,51.1-15.5
				c7.1,21.4,15.2,42.7,24.5,63.9c24.6-4,48.4-9.5,71.5-16.1c16.6,13.2,34.1,25.7,52.7,37.5c19.2-12.7,37.4-26.2,54.5-40.3
				c0.5,0.4,0.9,0.7,1.4,1.1c9.9,7.8,20.7,15,32.1,21.2c5.3,2.9,10.8,5.7,16.3,8.2c10.6-15.2,20.4-30.6,29.5-46.1
				c10.3,6.4,20.9,12.4,31.8,18.3c4.4-16.8,8.1-33.6,11.3-50.4C933.9,738.5,935,739.9,936.1,741.3z"/>
		</g>
		<path class="st6" d="M683.5,210.8c20.5-5.3,53.9-11.7,95.1-9.7c26.1,1.3,47.9,5.5,64.1,9.7c-3.3-14.2-9-35.4-18.9-60.6
			c-17.9-45.8-33.4-85.6-53.2-86.9C754.7,62.1,728.1,85.9,683.5,210.8z"/>
		<g class="st8">
			<path class="st4" d="M713.2,178.8c5.7-37.8,25.6-73.9,54.5-98.9c-11.2,15.3-21.9,30.8-31,47.4
				C727.5,143.8,720.1,161.1,713.2,178.8L713.2,178.8z"/>
		</g>
		<circle class="st6" cx="758.5" cy="516.9" r="44.5"/>
		<circle class="st4" cx="727.3" cy="493.7" r="18.8"/>
		<path class="st0" d="M1094.2,594.4L1094.2,594.4c-19.2,6.4-28.8,25.6-20.2,40.1c31.3,52.7,50.2,109.4,56.9,170.3
			c1.8,16.8,21,26.3,40.2,19.9l0,0c15.1-5,24.9-18.4,23.2-31.6c-8.6-66.5-29.5-129-62.6-187.4
			C1125.1,594.2,1109.3,589.4,1094.2,594.4z"/>
		<path class="st9" d="M691.6,169.8c-18,14.6-39.7,33.4-63,57c-13.8,13.9-28.2,29.5-42.6,46.8c-9.3,11.1-18.7,22.9-28,35.5
			c-0.9,1.2-1.9,2.4-2.7,3.7c-0.9,1.2-1.8,2.4-2.7,3.7c-1,1.4-2.1,2.9-3.1,4.3c-2.9,4.1-5.7,8.1-8.6,12.3c-1.9,2.9-3.9,5.7-5.8,8.7
			c-0.1,0.1-0.1,0.1-0.2,0.2c-6.3,9.6-12.5,19.4-18.6,29.7c-9.3,15.6-18.2,32-26.8,49.2c-7,14.2-13.7,29-20.1,44.3
			c-0.4,0.9-0.8,1.9-1.2,2.8c-2.9,7-5.7,14.1-8.2,21.1c-12.4,33.1-21.9,65.8-28.9,97.6c-0.7,3.4-1.4,6.7-2.2,10.2
			c-6.5,31.7-10.6,62.6-12.9,92.3c-0.1,2-0.3,3.9-0.4,5.8c-2.9,42.1-2.1,81.8,0.9,118.2c0.4,4.7,0.8,9.3,1.3,13.9
			c1.1,11.5,2.6,22.8,4.1,33.6c0.1,0.6,0.2,1.3,0.3,1.8c-1.4-0.1-2.9-0.2-4.4-0.3c-0.4,0-0.7-0.1-1-0.1s-0.6-0.1-0.9-0.1
			c-0.2-0.3-0.4-0.6-0.5-1c-0.9-0.1-1.8-0.4-2.7-0.5c0,0,0.9-0.1,2.4-0.1c-1.3-2.7-2.6-5.5-3.8-8.3c-0.1-0.2-0.1-0.3-0.2-0.5
			c-1-2.1-1.8-4.2-2.6-6.4c-1.4-3.2-2.6-6.5-3.6-9.9c-0.7-1.8-1.3-3.6-1.8-5.5c-0.6-1.8-1.1-3.6-1.6-5.4c-0.5-1.6-1-3.2-1.3-4.8
			c-1-3.5-1.9-7-2.6-10.6c-0.3-1.1-0.5-2.2-0.7-3.3c-0.5-2.9-1.1-5.8-1.6-8.7s-0.9-5.9-1.3-8.9c-0.3-2.3-0.5-4.6-0.7-6.9
			c-0.2-2.1-0.4-4.1-0.5-6.2c-0.1-1.6-0.2-3-0.2-4.6c-0.1-1.4-0.1-2.8-0.1-4.2c0,0-0.1,0,0-0.1c-0.1-2-0.1-4-0.1-6v-33.9
			c-0.2,0.3-0.5,0.6-0.7,0.9c0-3.3,0.4-10.8,0.7-18.8c0.4-10.3,1-21.3,1-25.4c0.1-2.5,0.2-38.1-1-50.8c-0.1-0.8-0.2-1.6-0.3-2.2
			c0.1-0.1,0.2-0.2,0.3-0.3V530c0-2.8,0.1-5.6,0.1-8.4c0-1.7,0.1-3.5,0.2-5.2c0.1-2.4,0.1-4.7,0.3-7.1c0.2-3.4,0.4-6.8,0.7-10.2
			c0.2-2.2,0.4-4.4,0.6-6.6c0.1-1.2,0.2-2.4,0.4-3.5c0.4-3,0.8-6.2,1.2-9.2c0.2-1.9,0.5-3.9,0.8-5.8c0.5-2.9,1-5.9,1.5-8.9
			c1.5-8.4,3.3-16.7,5.4-24.9c0.7-2.4,1.3-4.7,1.9-7c2.8-10.2,6-20.1,9.7-30c1.4-3.8,2.9-7.5,4.4-11.2c1.4-3.4,2.9-6.8,4.4-10.2
			c0.1-0.3,0.2-0.6,0.4-0.8c1.5-3.2,3-6.5,4.5-9.6c1.7-3.5,3.5-6.9,5.2-10.3c1.5-2.7,2.9-5.5,4.4-8.2c0.4-0.7,0.8-1.4,1.2-2.1
			c1.9-3.3,3.8-6.6,5.7-9.7c1.7-2.8,3.4-5.6,5.2-8.4c0.4-0.5,0.7-1.1,1.1-1.6c2-3.1,4.1-6.2,6.2-9.3c0,0,0,0,0.1-0.1
			c1.4-2,2.8-3.9,4.2-6c1.4-1.9,2.8-3.8,4.2-5.7c0.1-0.1,0.1-0.1,0.1-0.2c0.1-0.1,0.1-0.1,0.1-0.1c2.8-3.6,5.6-7.2,8.5-10.7
			c2.7-3.4,5.6-6.7,8.4-10c0.2-0.1,0.3-0.3,0.4-0.5c1.5-1.7,3-3.4,4.5-5.1c0.4-0.4,0.8-0.8,1.1-1.2c1.7-1.9,3.5-3.6,5.1-5.5h0.1
			c5.7-5.9,11.6-11.6,17.7-17.3h0.1c2.2-2,4.4-3.9,6.6-5.9c2.2-1.9,4.4-3.8,6.6-5.6c2.3-1.9,4.5-3.7,6.7-5.5
			c2.3-1.8,4.6-3.6,6.9-5.3c1.8-1.4,3.6-2.7,5.4-4.1c7.6-5.5,15.4-10.8,23.4-15.6c9.3-5.7,18.9-11.1,28.8-15.9
			c2.4-1.3,4.9-2.4,7.4-3.6c1.7-0.8,3.5-1.6,5.3-2.4c1.9-0.8,3.8-1.7,5.8-2.5c4-1.7,8.1-3.4,12.1-5c1.9-0.8,3.8-1.5,5.7-2.2
			c5.8-2.2,11.6-4.1,17.5-6c1.9-0.6,3.8-1.1,5.7-1.7C668,174.9,679.7,172.1,691.6,169.8z"/>
		<path class="st10" d="M1125.5,530v230.1c0,2.8-0.1,5.6-0.2,8.4c-0.4,13.2-2,26-4.5,38.6c-0.1,0.5-0.2,1-0.3,1.5
			c-3.4,15.9-8.4,31.3-14.9,45.9v0.1c-0.5,1.3-1.1,2.4-1.7,3.7v0.1c-0.4,0.7-0.7,1.4-1.1,2.1c-0.1,0.2-0.1,0.3-0.2,0.5
			c-0.2,0.4-0.4,0.8-0.6,1.2c-1.3,2.7-2.6,5.4-4.1,8.1c-0.2,0.3-0.4,0.7-0.5,1c-2.7,5.2-5.7,10.2-8.9,15.2c-0.5,0.8-1.1,1.7-1.7,2.4
			c-0.2,0.2-0.4,0.5-0.5,0.7c-0.5,0.8-1,1.6-1.6,2.4c-13.7,20.2-30.6,38.2-49.8,53.2c-18.7,12.6-37.6,22.2-55.8,29.4
			c-27.8,11.1-54.3,16.8-76.3,19.7c-1.1,0.1-2.3,0.3-3.4,0.4c-2.9,0.1-5.7,0.2-8.5,0.2h-36c13.7-2.6,29.7-7,46.8-14.9
			c2.9-1.3,5.9-2.7,8.8-4.3c25.6-13.4,45-30.8,59.5-47.9c19.4-22.8,30-45.1,35-56.6c0.1-0.1,0.2-0.1,0.2-0.2
			c40.6-48.3,63-94.3,75.6-125.9c8.4-21,14.5-41,19-59.8c8.4-34.7,11.5-65.5,13.6-91.9c0.3-3.4,0.6-6.7,0.8-10
			c3.5-43.4,2-77.5,0.8-94.1c-0.3-3.9-0.6-6.9-0.8-8.8c-0.5-5.1-1-10.2-1.6-15.1c-2.8-23.8-7-45.3-11.5-64c-0.5-2-1-4.1-1.5-6
			c0.8,1.9,1.5,3.8,2.2,5.8c7.8,20.6,13.9,42.1,17.8,64.2c1.4,7.9,2.6,15.8,3.5,23.9C1124.7,502.5,1125.5,516.1,1125.5,530z"/>
		<g class="st11">
			<path class="st6" d="M533.4,808c-23.2-17.6-17.5-57.1,9.7-67.4C522.9,758.2,519,785.4,533.4,808L533.4,808z"/>
		</g>
		<g class="st11">
			<path class="st6" d="M956.6,753c14.1-0.3,21.2,20.3,9.7,28.6C968.1,769.4,965.5,761.6,956.6,753L956.6,753z"/>
		</g>
		<path class="st12" d="M451.7,865.7c-4.2,10.1-23.6,14.3-28.7,9.1c-0.6-0.6-1.1-1.6-2-3.4c-3-6.2-3.2-11.7-3.7-11.6
			c-0.5,0.1-0.3,3.3-0.8,3.3c-0.2,0-0.4-0.6-0.6-1.2l0,0c-0.2-0.3-0.3-0.6-0.4-0.9c-0.9-0.2-1.8-0.4-2.7-0.5c0,0,0.9-0.1,2.4-0.1
			c-20-24.8-20.3-42.9-18.5-52.9c0.1-0.6,0.2-1.1,0.3-1.7c4.8,0.8,12,2.7,19.6,7.4c8.4,5.2,11.9,11.9,19.2,19.6
			C450.3,848.3,454.7,858.5,451.7,865.7z"/>
		<path id="XMLID_00000066515034870106362600000002827522657998071455_" class="st0" d="M392.1,803.8c5.6,5.4,28,24.2,37.8,34.4
			c7.8,8,16.5,17,14.1,25.2c-1.6,5.3-8.1,8.6-14.1,10.2c-12.2,3.3-41-32.7-41-32.7s-6,28.8,16.1,57.9c22,29.1,27.3,47.8,8.9,52
			s-35.5-16.1-35.5-16.1s11.9,21-0.9,27c-12.9,6-29.2-5.4-35.7-13.4c0,0-9.4,5.3-18.3,1.4c-2.3-1-5.1-2.9-7.8-6.7
			c-13.5-19.2-9.5-62.4-9.5-62.4c0.6-5.9,1.6-14.9,6.8-41.3c4-20.6,7.8-37.4,10.4-48.8c0.7-0.9,17.1-19.4,38.7-15.3
			c13,2.4,26.1,12.2,25.8,17.9c0,0.6-0.3,2.1,0.2,4C388.8,800.6,391,802.8,392.1,803.8z"/>
		<path class="st6" d="M358.1,872.4c0.8,22.5,7.7,44.5,21.2,62.6l-0.3,0.3c-10.1-6.2-15.8-17.6-18.3-28.8
			C358.3,895.6,356.2,882.6,358.1,872.4L358.1,872.4z"/>
		<path class="st6" d="M324.8,879.2c-2.3,23.3,2.8,46.8,15.9,66.3l-0.3,0.3c-10-7.1-15.2-19.3-16.7-31.2
			C322.3,903.2,321.6,889.6,324.8,879.2L324.8,879.2z"/>
		<path class="st12" d="M1065.9,865.7c4.2,10.1,23.6,14.3,28.7,9.1c0.6-0.6,1.1-1.6,2-3.4c3-6.2,3.2-11.7,3.7-11.6
			c0.5,0.1,0.3,3.3,0.8,3.3c0.2,0,0.4-0.6,0.6-1.2l0,0c0.2-0.3,0.3-0.6,0.4-0.9c0.9-0.2,1.8-0.4,2.7-0.5c0,0-0.9-0.1-2.4-0.1
			c20-24.8,20.3-42.9,18.5-52.9c-0.1-0.6-0.2-1.1-0.3-1.7c-4.8,0.8-12,2.7-19.6,7.4c-8.4,5.2-11.9,11.9-19.2,19.6
			C1067.2,848.3,1062.9,858.5,1065.9,865.7z"/>
		<path id="XMLID_00000038398826437052505840000008632264663144658070_" class="st0" d="M1125.5,803.8c-5.6,5.4-28,24.2-37.8,34.4
			c-7.8,8-16.5,17-14.1,25.2c1.6,5.3,8.1,8.6,14.1,10.2c12.2,3.3,41-32.7,41-32.7s6,28.8-16.1,57.9c-22,29.1-27.3,47.8-8.9,52
			s35.5-16.1,35.5-16.1s-11.9,21,0.9,27c12.9,6,29.2-5.4,35.7-13.4c0,0,9.4,5.3,18.3,1.4c2.3-1,5.1-2.9,7.8-6.7
			c13.5-19.2,9.5-62.4,9.5-62.4c-0.6-5.9-1.6-14.9-6.8-41.3c-4-20.6-7.8-37.4-10.4-48.8c-0.7-0.9-17.1-19.4-38.7-15.3
			c-13,2.4-26.1,12.2-25.8,17.9c0,0.6,0.3,2.1-0.2,4C1128.8,800.6,1126.6,802.8,1125.5,803.8z"/>
		<path class="st6" d="M1159.9,872.3c0.5,21.8-1.3,49.6-21.3,63l-0.3-0.3c6.8-9.2,11.5-18.8,15.4-29.4
			C1157.5,895.1,1158.4,882.6,1159.9,872.3L1159.9,872.3z"/>
		<path class="st6" d="M1193.2,879.1c3.5,22.4,3.9,51.6-16,66.7l-0.3-0.3c6.5-9.9,10.8-20.1,13.8-31.5
			C1193.5,902.9,1193,890,1193.2,879.1L1193.2,879.1z"/>
	</g>
</g>
</svg>
